# xmcd
# Track frame offsets:
# 150
# 14396
# 26211
# 39407
# 53096
# 64999
# 81733
# 99512
# 115537
# 124612
# 139414
#
# Disc length: 2014 seconds
# Revision: 0
# Processed by: cddbd v1.4PL0 Copyright (c) Steve Scherf et al.
# Submitted via: VisiTrax 2.9.5.180 - For more info visit www.synapsa.com
#
DISCID=9707dc0b
DTITLE=Darnell Miller - Voice Activated
DYEAR=1900
DGENRE=
TTITLE0=When Paul Revere and Lady Godiva ride by
TTITLE1=The saddle next to mine
TTITLE2=Where the grass grows high
TTITLE3=Patience
TTITLE4=It ain't that way
TTITLE5=Forever's gone
TTITLE6=Nothing scares the hell out of me
TTITLE7=Christina
TTITLE8=Moving out, moving in. moving on
TTITLE9=God and you and me
TTITLE10=I was raised on The Grand Ole Opry
EXTD=
EXTT0=
EXTT1=
EXTT2=
EXTT3=
EXTT4=
EXTT5=
EXTT6=
EXTT7=
EXTT8=
EXTT9=
EXTT10=
PLAYORDER=
